<svg width="173" height="175" viewBox="0 0 173 175" fill="none" xmlns="http://www.w3.org/2000/svg">
<g clip-path="url(#clip0_584_979)">
<path d="M166.911 87.4966C169.583 84.3493 171.455 80.5902 172.366 76.5453C173.276 72.5003 173.197 68.2918 172.135 64.2848C171.074 60.2777 169.062 56.5931 166.274 53.5507C163.486 50.5083 160.007 48.1999 156.137 46.8258C156.895 42.7487 156.659 38.5461 155.447 34.5825C154.236 30.6189 152.088 27.014 149.187 24.0807C146.287 21.1474 142.723 18.9742 138.805 17.7496C134.886 16.5251 130.732 16.2862 126.701 17.0537C125.344 13.1385 123.062 9.61768 120.055 6.79686C117.047 3.97604 113.404 1.94048 109.442 0.866924C105.481 -0.206634 101.32 -0.285745 97.3206 0.63646C93.3217 1.55866 89.6058 3.45431 86.4954 6.15881C83.3841 3.45617 79.6679 1.56223 75.6692 0.641303C71.6706 -0.279628 67.5101 -0.199737 63.5488 0.874042C59.5876 1.94782 55.9451 3.98306 52.9375 6.80319C49.9298 9.62333 47.6478 13.1432 46.2894 17.0574C42.2592 16.2912 38.105 16.5312 34.1872 17.7566C30.2694 18.9819 26.7063 21.1557 23.807 24.0893C20.9077 27.0229 18.7597 30.6277 17.5493 34.5911C16.3389 38.5545 16.1028 42.7568 16.8613 46.8334C12.9918 48.2075 9.51211 50.5159 6.7242 53.5583C3.93629 56.6007 1.9243 60.2853 0.862797 64.2923C-0.19871 68.2994 -0.277699 72.5079 0.632706 76.5528C1.54311 80.5978 3.41544 84.3569 6.0872 87.5042C3.41463 90.6513 1.54172 94.4107 0.631059 98.4561C-0.279606 102.501 -0.200548 106.71 0.861424 110.718C1.9234 114.725 3.93616 118.41 6.72502 121.452C9.51389 124.494 12.9946 126.802 16.865 128.175C16.1059 132.252 16.3418 136.454 17.5523 140.418C18.7628 144.381 20.9113 147.986 23.8114 150.92C26.7114 153.853 30.2754 156.026 34.1938 157.25C38.1123 158.474 42.2669 158.712 46.2969 157.943C47.6553 161.858 49.9373 165.377 52.945 168.198C55.9526 171.018 59.5951 173.053 63.5563 174.127C67.5176 175.2 71.678 175.28 75.6767 174.359C79.6754 173.439 83.3916 171.545 86.5029 168.842C89.6141 171.545 93.3305 173.44 97.3297 174.361C101.329 175.282 105.49 175.202 109.451 174.128C113.413 173.054 117.056 171.018 120.063 168.197C123.07 165.376 125.352 161.855 126.709 157.939C130.739 158.707 134.894 158.468 138.812 157.244C142.73 156.019 146.294 153.846 149.194 150.913C152.094 147.979 154.243 144.374 155.453 140.411C156.664 136.447 156.9 132.244 156.141 128.167C160.011 126.794 163.491 124.485 166.279 121.443C169.067 118.4 171.079 114.715 172.14 110.708C173.201 106.701 173.279 102.492 172.368 98.4471C171.457 94.4021 169.584 90.6432 166.911 87.4966V87.4966Z" fill="#18C07A"/>
<path d="M70.9718 120.897L46.9344 96.5974C46.0222 95.6731 45.5098 94.4204 45.5098 93.1143C45.5098 91.8082 46.0222 90.5555 46.9344 89.6312L49.8548 86.6733C50.7685 85.7505 52.0069 85.2322 53.298 85.2322C54.5892 85.2322 55.8276 85.7505 56.7413 86.6733L74.2145 104.337L115.365 60.1017C116.251 59.1514 117.473 58.5952 118.763 58.5554C120.054 58.5156 121.307 58.9954 122.248 59.8894L125.247 62.7525C126.188 63.6483 126.738 64.8853 126.778 66.1916C126.817 67.4979 126.342 68.7665 125.457 69.7186L77.9746 120.787C77.5275 121.269 76.9892 121.656 76.3916 121.923C75.7941 122.19 75.1495 122.333 74.4962 122.344C73.8429 122.354 73.1942 122.231 72.5888 121.983C71.9833 121.734 71.4334 121.365 70.9718 120.897V120.897Z" fill="white"/>
</g>
<defs>
<clipPath id="clip0_584_979">
<rect width="173" height="175" fill="white"/>
</clipPath>
</defs>
</svg>
