<svg width="58" height="52" viewBox="0 0 58 52" fill="none" xmlns="http://www.w3.org/2000/svg">
<g opacity="0.75">
<path d="M45.9163 8.50038H12.083C10.1602 8.50038 8.31612 9.17206 6.95648 10.3677C5.59685 11.5633 4.83301 13.1848 4.83301 14.8757V36.1266C4.83301 37.8174 5.59685 39.439 6.95648 40.6346C8.31612 41.8302 10.1602 42.5019 12.083 42.5019H45.9163C47.8392 42.5019 49.6832 41.8302 51.0429 40.6346C52.4025 39.439 53.1663 37.8174 53.1663 36.1266V14.8757C53.1663 13.1848 52.4025 11.5633 51.0429 10.3677C49.6832 9.17206 47.8392 8.50038 45.9163 8.50038ZM44.2972 12.7506L28.9997 22.8448L13.7022 12.7506H44.2972ZM45.9163 38.2517H12.083C11.4421 38.2517 10.8274 38.0278 10.3742 37.6293C9.92095 37.2308 9.66634 36.6902 9.66634 36.1266V15.4069L27.5497 27.2012C27.968 27.4771 28.4768 27.6262 28.9997 27.6262C29.5226 27.6262 30.0314 27.4771 30.4497 27.2012L48.333 15.4069V36.1266C48.333 36.6902 48.0784 37.2308 47.6252 37.6293C47.172 38.0278 46.5573 38.2517 45.9163 38.2517Z" fill="#231F20"/>
</g>
</svg>
